<svg xmlns="http://www.w3.org/2000/svg" viewBox="0 0 420 520" role="img" aria-labelledby="title desc">
  <title id="title">SF-PG-041025 chess engine logo</title>
  <desc id="desc">Logo featuring a rook and a knight silhouette next to the text SF-PG-041025 and UCI Chess Engine.</desc>
  <defs>
    <linearGradient id="rookGradient" x1="0" x2="0" y1="0" y2="1">
      <stop offset="0%" stop-color="#d9dde2"/>
      <stop offset="100%" stop-color="#9ea4ac"/>
    </linearGradient>
    <linearGradient id="knightGradient" x1="0" x2="1" y1="0" y2="1">
      <stop offset="0%" stop-color="#3aa1d9"/>
      <stop offset="100%" stop-color="#14608e"/>
    </linearGradient>
  </defs>
  <rect x="32" y="340" width="120" height="36" rx="6" fill="url(#rookGradient)"/>
  <rect x="48" y="300" width="88" height="32" rx="6" fill="url(#rookGradient)"/>
  <rect x="42" y="180" width="100" height="122" fill="url(#rookGradient)"/>
  <rect x="32" y="152" width="120" height="32" fill="url(#rookGradient)"/>
  <rect x="40" y="116" width="104" height="32" fill="url(#rookGradient)"/>
  <rect x="52" y="80" width="80" height="32" fill="url(#rookGradient)"/>
  <rect x="60" y="60" width="64" height="20" rx="6" fill="url(#rookGradient)"/>
  <path fill="url(#knightGradient)" d="M315 360c-12 30-51 52-101 52-60 0-110-42-110-110 0-40 18-72 42-94l-24-18c-8-6-10-17-3-24l40-40-16-22c-4-6-2-14 5-18 14-7 31-12 50-12 42 0 90 24 90 86 0 18-6 36-14 50 19 14 35 38 35 78 0 28-8 52-17 72l14 14c6 6 6 16 0 22l-9 9c-6 6-16 6-22 0l-10-10z"/>
  <path fill="white" fill-opacity="0.18" d="M214 138c14-8 32-12 51-10 12 1 25 4 36 10-10-33-45-52-78-48-12 1-23 4-32 9l23 31z"/>
  <circle cx="282" cy="182" r="12" fill="#0f3c5d"/>
  <text x="210" y="380" fill="#0f3c5d" font-family="'Segoe UI', 'Helvetica Neue', Arial, sans-serif" font-weight="600" font-size="54" text-anchor="middle">SF-PG-041025</text>
  <text x="210" y="430" fill="#4a545f" font-family="'Segoe UI', 'Helvetica Neue', Arial, sans-serif" font-size="36" letter-spacing="2.5" text-anchor="middle">UCI CHESS ENGINE</text>
</svg>
